<?xml version="1.0" encoding="UTF-8"?>
<svg width="127px" height="23px" viewBox="0 0 127 23" version="1.1" xmlns="http://www.w3.org/2000/svg" xmlns:xlink="http://www.w3.org/1999/xlink">
    <!-- Generator: Sketch 52.5 (67469) - http://www.bohemiancoding.com/sketch -->
    <title>Group</title>
    <desc>Created with Sketch.</desc>
    <g id="VANAHEIM" stroke="none" stroke-width="1" fill="none" fill-rule="evenodd">
        <g id="VANAHEIMEX" transform="translate(-398.000000, -34.000000)">
            <g id="Navigation" transform="translate(165.000000, 20.000000)">
                <g id="Logo">
                    <g id="Group" transform="translate(233.000000, 9.000000)">
                        <g id="Unstoppable-Domains" transform="translate(25.000000, 5.000000)" fill-rule="nonzero">
                            <path d="M35.8637568,9.00359856 C34.9584918,9.00359856 34.2548909,8.76994436 33.752933,8.30262895 C33.2509752,7.83531354 33,7.17283514 33,6.31517393 L33,3.11545382 L34.7234767,3.11545382 L34.7234767,6.26569372 C34.7234767,7.18932888 35.1093692,7.65113954 35.8811656,7.65113954 C36.6471591,7.65113954 37.0301501,7.18932888 37.0301501,6.26569372 L37.0301501,3.11545382 L38.7275136,3.11545382 L38.7275136,6.31517393 C38.7275136,7.17283514 38.4765384,7.83531354 37.9745805,8.30262895 C37.4726227,8.76994436 36.7690218,9.00359856 35.8637568,9.00359856 Z M45.6910559,3.11545382 L45.6910559,8.88814474 L44.2722341,8.88814474 L41.5825659,5.81212515 L41.5825659,8.88814474 L39.8939069,8.88814474 L39.8939069,3.11545382 L41.3127286,3.11545382 L44.0023969,6.19147341 L44.0023969,3.11545382 L45.6910559,3.11545382 Z M49.0509651,9.00359856 C48.5577116,9.00359856 48.0789728,8.94587221 47.6147345,8.83041783 C47.1504961,8.71496345 46.7733079,8.56102655 46.4831588,8.36860256 L47.0489466,7.16458417 C47.3216868,7.33501683 47.6379444,7.47246048 47.9977293,7.57691923 C48.3575141,7.68137799 48.7114908,7.73360656 49.0596695,7.73360656 C49.7212092,7.73360656 50.0519743,7.57692081 50.0519743,7.26354458 C50.0519743,7.09860973 49.9576772,6.97628487 49.7690804,6.89656637 C49.5804835,6.81684787 49.2772822,6.73300722 48.8594676,6.64504198 C48.4010323,6.55157889 48.0180411,6.45124503 47.7104832,6.34403739 C47.4029253,6.23682974 47.1388934,6.06502516 46.9183802,5.82861855 C46.697867,5.59221194 46.587612,5.27334266 46.587612,4.8720012 C46.587612,4.52014017 46.6891626,4.20264535 46.8922669,3.9195072 C47.0953713,3.63636904 47.3985726,3.41233589 47.8018797,3.24740104 C48.2051867,3.08246619 48.6998834,3 49.2859846,3 C49.6863903,3 50.0809869,3.04260753 50.4697868,3.12782387 C50.8585867,3.21304021 51.2009572,3.33811393 51.4969093,3.50304878 L50.9659392,4.71531387 C50.3856411,4.41843113 49.8227606,4.269992 49.2772802,4.269992 C48.9349042,4.269992 48.6853799,4.31809726 48.5286994,4.41430928 C48.3720189,4.51052125 48.2936798,4.635595 48.2936798,4.78953419 C48.2936798,4.94347337 48.386526,5.05892603 48.5722215,5.13589564 C48.757917,5.21286525 49.0567658,5.29258255 49.4687776,5.37504998 C49.933016,5.46851307 50.3174577,5.56884694 50.6221143,5.67605458 C50.9267709,5.78326222 51.1908027,5.95369237 51.4142172,6.18735006 C51.6376318,6.42100778 51.7493377,6.7385026 51.7493377,7.13984406 C51.7493377,7.48620724 51.6477871,7.79957878 51.4446827,8.07996801 C51.2415784,8.36035724 50.9369265,8.58439039 50.5307178,8.75207417 C50.1245091,8.91975795 49.6312632,9.00359856 49.0509651,9.00359856 Z M53.8384004,4.41018593 L51.9669484,4.41018593 L51.9669484,3.11545382 L57.4246247,3.11545382 L57.4246247,4.41018593 L55.5618771,4.41018593 L55.5618771,8.88814474 L53.8384004,8.88814474 L53.8384004,4.41018593 Z M61.1414154,9.00359856 C60.4972846,9.00359856 59.9184457,8.87440154 59.404882,8.6160036 C58.8913184,8.35760566 58.488017,8.00025217 58.1949666,7.54393243 C57.9019162,7.08761268 57.755393,6.57357345 57.755393,6.00179928 C57.755393,5.43002511 57.9019162,4.91598588 58.1949666,4.45966613 C58.488017,4.00334639 58.8913184,3.6459929 59.404882,3.38759496 C59.9184457,3.12919703 60.4972846,3 61.1414154,3 C61.7855462,3 62.3643852,3.12919703 62.8779488,3.38759496 C63.3915124,3.6459929 63.7948139,4.00334639 64.0878643,4.45966613 C64.3809147,4.91598588 64.5274379,5.43002511 64.5274379,6.00179928 C64.5274379,6.57357345 64.3809147,7.08761268 64.0878643,7.54393243 C63.7948139,8.00025217 63.3915124,8.35760566 62.8779488,8.6160036 C62.3643852,8.87440154 61.7855462,9.00359856 61.1414154,9.00359856 Z M61.1414154,7.65113954 C61.4489733,7.65113954 61.7275122,7.58241772 61.9770405,7.44497201 C62.2265687,7.3075263 62.4238669,7.11373077 62.5689416,6.86357957 C62.7140159,6.61342837 62.7865523,6.32617117 62.7865523,6.00179928 C62.7865523,5.67742739 62.7140159,5.39017019 62.5689416,5.14001899 C62.4238669,4.88986779 62.2265687,4.69607226 61.9770405,4.55862655 C61.7275122,4.42118084 61.4489733,4.35245902 61.1414154,4.35245902 C60.8338575,4.35245902 60.5553186,4.42118084 60.3057903,4.55862655 C60.0562621,4.69607226 59.8589636,4.88986779 59.7138892,5.14001899 C59.5688149,5.39017019 59.4962785,5.67742739 59.4962785,6.00179928 C59.4962785,6.32617117 59.5688149,6.61342837 59.7138892,6.86357957 C59.8589636,7.11373077 60.0562621,7.3075263 60.3057903,7.44497201 C60.5553186,7.58241772 60.8338575,7.65113954 61.1414154,7.65113954 Z M68.2181153,3.11545382 C68.7693984,3.11545382 69.2481372,3.20204332 69.6543459,3.37522491 C70.0605547,3.5484065 70.3739109,3.79580507 70.5944241,4.11742803 C70.8149373,4.43905099 70.9251924,4.817021 70.9251924,5.25134946 C70.9251924,5.68567792 70.8149373,6.0622735 70.5944241,6.38114754 C70.3739109,6.70002158 70.0605547,6.94604572 69.6543459,7.11922731 C69.2481372,7.2924089 68.7693984,7.3789984 68.2181153,7.3789984 L67.1561751,7.3789984 L67.1561751,8.88814474 L65.4326984,8.88814474 L65.4326984,3.11545382 L68.2181153,3.11545382 Z M68.1136622,6.09251299 C68.4676439,6.09251299 68.7345771,6.01966786 68.9144695,5.87397541 C69.094362,5.72828296 69.1843068,5.52074307 69.1843068,5.25134946 C69.1843068,4.98195586 69.094362,4.77304153 68.9144695,4.62460016 C68.7345771,4.47615879 68.4676439,4.40193922 68.1136622,4.40193922 L67.1561751,4.40193922 L67.1561751,6.09251299 L68.1136622,6.09251299 Z M74.6332787,3.11545382 C75.1845617,3.11545382 75.6633005,3.20204332 76.0695093,3.37522491 C76.475718,3.5484065 76.7890743,3.79580507 77.0095875,4.11742803 C77.2301007,4.43905099 77.3403557,4.817021 77.3403557,5.25134946 C77.3403557,5.68567792 77.2301007,6.0622735 77.0095875,6.38114754 C76.7890743,6.70002158 76.475718,6.94604572 76.0695093,7.11922731 C75.6633005,7.2924089 75.1845617,7.3789984 74.6332787,7.3789984 L73.5713385,7.3789984 L73.5713385,8.88814474 L71.8478617,8.88814474 L71.8478617,3.11545382 L74.6332787,3.11545382 Z M74.5288255,6.09251299 C74.8828073,6.09251299 75.1497405,6.01966786 75.3296329,5.87397541 C75.5095253,5.72828296 75.5994702,5.52074307 75.5994702,5.25134946 C75.5994702,4.98195586 75.5095253,4.77304153 75.3296329,4.62460016 C75.1497405,4.47615879 74.8828073,4.40193922 74.5288255,4.40193922 L73.5713385,4.40193922 L73.5713385,6.09251299 L74.5288255,6.09251299 Z M82.3454018,7.76659336 L79.7688911,7.76659336 L79.2901476,8.88814474 L77.5318532,8.88814474 L80.2215214,3.11545382 L81.9188848,3.11545382 L84.6172575,8.88814474 L82.8241453,8.88814474 L82.3454018,7.76659336 Z M81.840545,6.56257497 L81.0571465,4.71531387 L80.273748,6.56257497 L81.840545,6.56257497 Z M89.7876876,5.87809876 C90.1358663,5.99355314 90.4086026,6.17360435 90.6059039,6.4182577 C90.8032052,6.66291105 90.9018544,6.95841491 90.9018544,7.30477809 C90.9018544,7.81057831 90.6871474,8.20091826 90.2577268,8.47580968 C89.8283061,8.75070109 89.2073967,8.88814474 88.3949792,8.88814474 L85.1047054,8.88814474 L85.1047054,3.11545382 L88.2208906,3.11545382 C88.99849,3.11545382 89.5903852,3.25152303 89.9965939,3.52366553 C90.4028027,3.79580803 90.6059039,4.16278256 90.6059039,4.62460016 C90.6059039,4.89949158 90.5348184,5.14551572 90.3926454,5.36267993 C90.2504724,5.57984414 90.0488217,5.75164872 89.7876876,5.87809876 Z M86.8107733,4.29473211 L86.8107733,5.40803679 L87.9945755,5.40803679 C88.5748736,5.40803679 88.8650183,5.22111342 88.8650183,4.8472611 C88.8650183,4.47890659 88.5748736,4.29473211 87.9945755,4.29473211 L86.8107733,4.29473211 Z M88.2557083,7.70886645 C88.8592184,7.70886645 89.1609688,7.51369646 89.1609688,7.12335066 C89.1609688,6.73300486 88.8592184,6.53783487 88.2557083,6.53783487 L86.8107733,6.53783487 L86.8107733,7.70886645 L88.2557083,7.70886645 Z M91.7984105,3.11545382 L93.5218872,3.11545382 L93.5218872,7.59341263 L96.4291661,7.59341263 L96.4291661,8.88814474 L91.7984105,8.88814474 L91.7984105,3.11545382 Z M102,7.62639944 L102,8.88814474 L97.1081115,8.88814474 L97.1081115,3.11545382 L101.886842,3.11545382 L101.886842,4.37719912 L98.8141794,4.37719912 L98.8141794,5.35030988 L101.521256,5.35030988 L101.521256,6.57082167 L98.8141794,6.57082167 L98.8141794,7.62639944 L102,7.62639944 Z M33.0522266,12.1118553 L35.9333922,12.1118553 C36.600735,12.1118553 37.1926302,12.2300568 37.7090955,12.4664634 C38.2255608,12.70287 38.6259605,13.0382325 38.9103065,13.472561 C39.1946526,13.9068894 39.3368235,14.4154309 39.3368235,14.9982007 C39.3368235,15.5809705 39.1946526,16.089512 38.9103065,16.5238405 C38.6259605,16.9581689 38.2255608,17.2935314 37.7090955,17.529938 C37.1926302,17.7663446 36.600735,17.8845462 35.9333922,17.8845462 L33.0522266,17.8845462 L33.0522266,12.1118553 Z M35.8637568,16.5815674 C36.3860251,16.5815674 36.8052842,16.4413748 37.1215466,16.1609856 C37.4378091,15.8805964 37.5959379,15.4930053 37.5959379,14.9982007 C37.5959379,14.5033962 37.4378091,14.1158051 37.1215466,13.8354158 C36.8052842,13.5550266 36.3860251,13.4148341 35.8637568,13.4148341 L34.7757033,13.4148341 L34.7757033,16.5815674 L35.8637568,16.5815674 Z M43.3147471,18 C42.6706162,18 42.0917773,17.870803 41.5782137,17.612405 C41.0646501,17.3540071 40.6613486,16.9966536 40.3682982,16.5403339 C40.0752477,16.0840141 39.9287246,15.5699749 39.9287246,14.9982007 C39.9287246,14.4264266 40.0752477,13.9123873 40.3682982,13.4560676 C40.6613486,12.9997478 41.0646501,12.6423943 41.5782137,12.3839964 C42.0917773,12.1255985 42.6706162,11.9964014 43.3147471,11.9964014 C43.9588779,11.9964014 44.5377168,12.1255985 45.0512804,12.3839964 C45.5648441,12.6423943 45.9681455,12.9997478 46.2611959,13.4560676 C46.5542463,13.9123873 46.7007695,14.4264266 46.7007695,14.9982007 C46.7007695,15.5699749 46.5542463,16.0840141 46.2611959,16.5403339 C45.9681455,16.9966536 45.5648441,17.3540071 45.0512804,17.612405 C44.5377168,17.870803 43.9588779,18 43.3147471,18 Z M43.3147471,16.647541 C43.622305,16.647541 43.9008439,16.5788192 44.1503721,16.4413735 C44.3999004,16.3039277 44.5971989,16.1101322 44.7422732,15.859981 C44.887348,15.6098298 44.9598839,15.3225726 44.9598839,14.9982007 C44.9598839,14.6738288 44.887348,14.3865716 44.7422732,14.1364204 C44.5971989,13.8862692 44.3999004,13.6924737 44.1503721,13.555028 C43.9008439,13.4175823 43.622305,13.3488605 43.3147471,13.3488605 C43.0071892,13.3488605 42.7286502,13.4175823 42.479122,13.555028 C42.2295937,13.6924737 42.0322956,13.8862692 41.8872209,14.1364204 C41.7421466,14.3865716 41.6696102,14.6738288 41.6696102,14.9982007 C41.6696102,15.3225726 41.7421466,15.6098298 41.8872209,15.859981 C42.0322956,16.1101322 42.2295937,16.3039277 42.479122,16.4413735 C42.7286502,16.5788192 43.0071892,16.647541 43.3147471,16.647541 Z M53.1072285,17.8845462 L53.0898196,14.82502 L51.5230226,17.3155238 L50.7570329,17.3155238 L49.1989403,14.907487 L49.1989403,17.8845462 L47.60603,17.8845462 L47.60603,12.1118553 L49.0248518,12.1118553 L51.166141,15.4435226 L53.2552037,12.1118553 L54.6740255,12.1118553 L54.6914343,17.8845462 L53.1072285,17.8845462 Z M59.9924309,16.7629948 L57.4159203,16.7629948 L56.9371767,17.8845462 L55.1788823,17.8845462 L57.8685505,12.1118553 L59.565914,12.1118553 L62.2642866,17.8845462 L60.4711745,17.8845462 L59.9924309,16.7629948 Z M59.4875741,15.5589764 L58.7041756,13.7117153 L57.9207771,15.5589764 L59.4875741,15.5589764 Z M62.7517346,12.1118553 L64.4752113,12.1118553 L64.4752113,17.8845462 L62.7517346,17.8845462 L62.7517346,12.1118553 Z M71.4996846,12.1118553 L71.4996846,17.8845462 L70.0808629,17.8845462 L67.3911947,14.8085266 L67.3911947,17.8845462 L65.7025356,17.8845462 L65.7025356,12.1118553 L67.1213574,12.1118553 L69.8110256,15.1878749 L69.8110256,12.1118553 L71.4996846,12.1118553 Z M74.8595938,18 C74.3663404,18 73.8876016,17.9422737 73.4233632,17.8268193 C72.9591248,17.7113649 72.5819366,17.557428 72.2917876,17.365004 L72.8575754,16.1609856 C73.1303156,16.3314183 73.4465732,16.4688619 73.806358,16.5733207 C74.1661429,16.6777794 74.5201195,16.730008 74.8682982,16.730008 C75.5298379,16.730008 75.860603,16.5733222 75.860603,16.259946 C75.860603,16.0950112 75.766306,15.9726863 75.5777091,15.8929678 C75.3891122,15.8132493 75.0859109,15.7294087 74.6680964,15.6414434 C74.2096611,15.5479803 73.8266698,15.4476465 73.5191119,15.3404388 C73.211554,15.2332312 72.9475222,15.0614266 72.727009,14.82502 C72.5064957,14.5886134 72.3962407,14.2697441 72.3962407,13.8684026 C72.3962407,13.5165416 72.4977913,13.1990468 72.7008957,12.9159086 C72.904,12.6327705 73.2072014,12.4087373 73.6105084,12.2438025 C74.0138154,12.0788676 74.5085122,11.9964014 75.0946133,11.9964014 C75.495019,11.9964014 75.8896157,12.039009 76.2784155,12.1242253 C76.6672154,12.2094417 77.0095859,12.3345154 77.305538,12.4994502 L76.7745679,13.7117153 C76.1942698,13.4148326 75.6313893,13.2663934 75.0859089,13.2663934 C74.7435329,13.2663934 74.4940086,13.3144987 74.3373281,13.4107107 C74.1806476,13.5069227 74.1023086,13.6319964 74.1023086,13.7859356 C74.1023086,13.9398748 74.1951547,14.0553275 74.3808503,14.1322971 C74.5665458,14.2092667 74.8653945,14.288984 75.2774063,14.3714514 C75.7416447,14.4649145 76.1260865,14.5652484 76.430743,14.672456 C76.7353996,14.7796637 76.9994314,14.9500938 77.222846,15.1837515 C77.4462605,15.4174092 77.5579664,15.734904 77.5579664,16.1362455 C77.5579664,16.4826087 77.4564158,16.7959802 77.2533115,17.0763695 C77.0502071,17.3567587 76.7455553,17.5807918 76.3393465,17.7484756 C75.9331378,17.9161594 75.4398919,18 74.8595938,18 Z" id="Shape" fill="#FFFFFF"></path>
                            <polygon id="Path" fill="#2FE9FF" points="25 0 25 8.70833333 0 19"></polygon>
                            <path d="M21,0 L21,15.0689655 C21,19.4491549 17.6421356,23 13.5,23 C9.35786437,23 6,19.4491549 6,15.0689655 L6,8.72413793 L10.5,6.10689655 L10.5,15.0689655 C10.5,16.6020318 11.6752525,17.8448276 13.125,17.8448276 C14.5747474,17.8448276 15.75,16.6020318 15.75,15.0689655 L15.75,3.05344828 L21,0 Z" id="Path" fill="#4C47F7"></path>
                        </g>
                        <text id="+" font-family="Exo2-Bold, Exo 2" font-size="22.5" font-weight="bold" letter-spacing="3.7" fill="#30F091">
                            <tspan x="0" y="22">+</tspan>
                        </text>
                    </g>
                </g>
            </g>
        </g>
    </g>
</svg>