<?xml version="1.0" encoding="UTF-8"?>
<svg width="125px" height="56px" viewBox="0 0 125 56" version="1.1" xmlns="http://www.w3.org/2000/svg" xmlns:xlink="http://www.w3.org/1999/xlink">
    <!-- Generator: Sketch 55.2 (78181) - https://sketchapp.com -->
    <title>ledger-pin</title>
    <desc>Created with Sketch.</desc>
    <defs>
        <linearGradient x1="124.438113%" y1="54.6504771%" x2="-10.4799828%" y2="43.9911886%" id="linearGradient-1">
            <stop stop-color="#33CCFF" offset="0%"></stop>
            <stop stop-color="#4DECCA" offset="100%"></stop>
        </linearGradient>
        <linearGradient x1="124.438113%" y1="54.5041107%" x2="-10.4799828%" y2="44.1803064%" id="linearGradient-2">
            <stop stop-color="#33CCFF" offset="0%"></stop>
            <stop stop-color="#4DECCA" offset="100%"></stop>
        </linearGradient>
    </defs>
    <g id="WEBSITE" stroke="none" stroke-width="1" fill="none" fill-rule="evenodd">
        <g id="THORCHAIN-COM-UNLOCK-Copy" transform="translate(-719.000000, -296.000000)" fill-rule="nonzero">
            <g id="ledger-pin" transform="translate(720.000000, 296.000000)">
                <g id="ledger" transform="translate(0.000000, 19.000000)">
                    <polygon id="rect" stroke="#F8F8F8" stroke-width="2.5" fill="#848E9C" points="21.0131579 30.4868421 21.0131579 5.61842105 0.25 5.61842105 0.25 30.4868421"></polygon>
                    <path d="M24.1052632,0.35526316 C23.6910496,0.35526316 23.3552632,0.6910496 23.3552632,1.10526316 L23.3552632,35 C23.3552632,35.4142136 23.6910496,35.75 24.1052632,35.75 L120.315789,35.75 C120.730003,35.75 121.065789,35.4142136 121.065789,35 L121.065789,1.10526316 C121.065789,0.6910496 120.730003,0.35526316 120.315789,0.35526316 L24.1052632,0.35526316 Z" id="Rectangle-Copy" stroke="#F8F8F8" stroke-width="2.5" fill="#848E9C"></path>
                    <g id="Rectangle-3-Copy" opacity="0.300000012" transform="translate(30.000000, 10.000000)">
                        <g id="path-1-link" fill="#000000">
                            <rect id="path-1" x="0.7368421" y="0.6842105" width="11.5789474" height="14.7368421" rx="1"></rect>
                        </g>
                        <g id="path-1-link" fill="#848E9C" fill-opacity="0.5">
                            <rect id="path-1" x="0.7368421" y="0.6842105" width="11.5789474" height="14.7368421" rx="1"></rect>
                        </g>
                    </g>
                    <g id="Rectangle-3-Copy-4" opacity="0.300000012" transform="translate(48.000000, 10.000000)">
                        <g id="path-3-link" fill="#000000">
                            <rect id="path-3" x="0.6315789" y="0.6842105" width="11.5789474" height="14.7368421" rx="1"></rect>
                        </g>
                        <g id="path-3-link" fill="#848E9C" fill-opacity="0.5">
                            <rect id="path-3" x="0.6315789" y="0.6842105" width="11.5789474" height="14.7368421" rx="1"></rect>
                        </g>
                    </g>
                    <g id="Rectangle-3-Copy-7" opacity="0.300000012" transform="translate(66.000000, 10.000000)">
                        <g id="path-5-link" fill="#000000">
                            <rect id="path-5" x="0.5263158" y="0.6842105" width="11.5789474" height="14.7368421" rx="1"></rect>
                        </g>
                        <g id="path-5-link" fill="#848E9C" fill-opacity="0.5">
                            <rect id="path-5" x="0.5263158" y="0.6842105" width="11.5789474" height="14.7368421" rx="1"></rect>
                        </g>
                    </g>
                    <g id="Rectangle-3-Copy-8" opacity="0.300000012" transform="translate(84.000000, 10.000000)">
                        <g id="path-7-link" fill="#000000">
                            <rect id="path-7" x="0.4210526" y="0.6842105" width="11.5789474" height="14.7368421" rx="1"></rect>
                        </g>
                        <g id="path-7-link" fill="#848E9C" fill-opacity="0.5">
                            <rect id="path-7" x="0.4210526" y="0.6842105" width="11.5789474" height="14.7368421" rx="1"></rect>
                        </g>
                    </g>
                    <g id="Rectangle-3-Copy-9" opacity="0.300000012" transform="translate(102.000000, 10.000000)">
                        <g id="path-9-link" fill="#000000">
                            <rect id="path-9" x="0.315789" y="0.6842105" width="11.5789474" height="14.7368421" rx="1"></rect>
                        </g>
                        <g id="path-9-link" fill="#848E9C" fill-opacity="0.5">
                            <rect id="path-9" x="0.315789" y="0.6842105" width="11.5789474" height="14.7368421" rx="1"></rect>
                        </g>
                    </g>
                    <rect id="Rectangle-3-Copy-2" fill="#F8F8F8" opacity="0.587002442" x="7.42105263" y="11.7368421" width="8.42105263" height="4.21052632"></rect>
                    <rect id="Rectangle-3-Copy-3" fill="#F8F8F8" opacity="0.587002442" x="7.42105263" y="20.1578947" width="8.42105263" height="4.21052632"></rect>
                    <polygon id="*" fill="#F8F8F8" points="37.0771114 21.4210526 35.9755202 21.4210526 36.0629481 19.4850228 34.4367896 20.5234388 33.8947368 19.5730242 35.5908376 18.6930107 33.8947368 17.8129971 34.4367896 16.8449822 36.0629481 17.8833982 35.9755202 15.9473684 37.0771114 15.9473684 36.9896835 17.8833982 38.5983564 16.8449822 39.1578947 17.8129971 37.461794 18.6930107 39.1578947 19.5730242 38.5983564 20.5234388 36.9896835 19.4850228"></polygon>
                    <polygon id="*-copy" fill="#F8F8F8" points="54.9718482 21.4210526 53.870257 21.4210526 53.9576849 19.4850228 52.3315265 20.5234388 51.7894737 19.5730242 53.4855744 18.6930107 51.7894737 17.8129971 52.3315265 16.8449822 53.9576849 17.8833982 53.870257 15.9473684 54.9718482 15.9473684 54.8844204 17.8833982 56.4930932 16.8449822 57.0526316 17.8129971 55.3565309 18.6930107 57.0526316 19.5730242 56.4930932 20.5234388 54.8844204 19.4850228"></polygon>
                    <polygon id="*-copy-2" fill="#F8F8F8" points="72.8665851 21.4210526 71.7649939 21.4210526 71.8524218 19.4850228 70.2262633 20.5234388 69.6842105 19.5730242 71.3803112 18.6930107 69.6842105 17.8129971 70.2262633 16.8449822 71.8524218 17.8833982 71.7649939 15.9473684 72.8665851 15.9473684 72.7791572 17.8833982 74.38783 16.8449822 74.9473684 17.8129971 73.2512677 18.6930107 74.9473684 19.5730242 74.38783 20.5234388 72.7791572 19.4850228"></polygon>
                    <polygon id="*-copy-3" fill="#F8F8F8" points="90.7613219 21.4210526 89.6597307 21.4210526 89.7471586 19.4850228 88.1210002 20.5234388 87.5789474 19.5730242 89.2750481 18.6930107 87.5789474 17.8129971 88.1210002 16.8449822 89.7471586 17.8833982 89.6597307 15.9473684 90.7613219 15.9473684 90.673894 17.8833982 92.2825669 16.8449822 92.8421053 17.8129971 91.1460045 18.6930107 92.8421053 19.5730242 92.2825669 20.5234388 90.673894 19.4850228"></polygon>
                    <polygon id="*-copy-4" fill="#F8F8F8" points="108.656059 21.4210526 107.554468 21.4210526 107.641895 19.4850228 106.015737 20.5234388 105.473684 19.5730242 107.169785 18.6930107 105.473684 17.8129971 106.015737 16.8449822 107.641895 17.8833982 107.554468 15.9473684 108.656059 15.9473684 108.568631 17.8833982 110.177304 16.8449822 110.736842 17.8129971 109.040741 18.6930107 110.736842 19.5730242 110.177304 20.5234388 108.568631 19.4850228"></polygon>
                </g>
                <path d="M49.1402715,2 L119.333497,2 C120.438067,2 121.333497,2.8954305 121.333497,4 C121.333497,4.1412728 121.318529,4.282148 121.288843,4.42026657 L117.148571,23.6834245 C116.950497,24.6049906 116.135838,25.2631579 115.193226,25.2631579 L64.7764034,25.2631579 L57.9351575,29.1554373 L56.1195146,25.2631579 L45,25.2631579 C43.8954305,25.2631579 43,24.3677274 43,23.2631579 C43,23.1218851 43.0149684,22.9810099 43.0446545,22.8428913 L47.184926,3.57973343 C47.3830002,2.65816727 48.1976594,2 49.1402715,2 Z" id="Rectangle-8" fill="url(#linearGradient-1)" opacity="0.3"></path>
                <path d="M60.0471305,26.804101 L66.652776,23.0458648 L66.7764034,23.0131579 L117.193226,23.0131579 C118.018012,23.0131579 118.730838,22.4372615 118.904153,21.6308911 L123.044425,2.36773325 C123.0704,2.2468795 123.083497,2.1236137 123.083497,2 C123.083497,1.03350169 122.299996,0.25 121.333497,0.25 L51.1402715,0.25 C50.3154859,0.25 49.6026591,0.825896363 49.4293442,1.63226675 L45.2890727,20.8954246 C45.2630973,21.0162784 45.25,21.1395442 45.25,21.2631579 C45.25,22.2296562 46.0335017,23.0131579 47,23.0131579 L58.2787583,23.0131579 L60.0471305,26.804101 Z" id="Rectangle-8" stroke="#33CCFF" stroke-width="0.5" fill="url(#linearGradient-2)"></path>
                <path d="M57.846,15.814 L56,15.814 L58.0882468,7.143 L62.1442468,7.143 C64.0292468,7.143 64.749428,8.417 64.3831238,9.938 C64.0199504,11.446 62.6700008,12.733 60.7980008,12.733 L58.5880008,12.733 L57.846,15.814 Z M60.9423514,11.108 C61.6703514,11.108 62.3259295,10.653 62.4981238,9.938 C62.6734489,9.21 62.2338962,8.768 61.5058962,8.768 L59.5428962,8.768 L58.9793514,11.108 L60.9423514,11.108 Z M65.958,15.814 L64.112,15.814 L66.2002468,7.143 L68.0462468,7.143 L65.958,15.814 Z M75.435,15.814 L73.654,15.814 L70.8819001,10.159 L69.52,15.814 L67.674,15.814 L69.7622468,7.143 L71.6602468,7.143 L74.3654396,12.59 L75.6772468,7.143 L77.5232468,7.143 L75.435,15.814 Z M84.6404303,15.97 C82.0404303,15.97 80.463743,14.15 81.105558,11.485 C81.747373,8.82 84.2006857,7 86.8006857,7 C88.7116857,7 89.5662213,8.04 89.9173645,9.119 L88.1435162,9.899 C87.9485797,9.197 87.3032043,8.638 86.4062043,8.638 C84.8332043,8.638 83.3980394,9.847 83.003558,11.485 C82.6090766,13.123 83.4619118,14.332 85.0349118,14.332 C85.9319118,14.332 86.8434056,13.786 87.3795998,13.071 L88.7808823,13.838 C87.8970255,14.917 86.5514303,15.97 84.6404303,15.97 Z M92.2454303,15.97 C90.1784303,15.97 89.2936037,14.462 89.7256548,12.668 C90.154575,10.887 91.7657484,9.379 93.8327484,9.379 C95.9127484,9.379 96.797575,10.887 96.3686548,12.668 C95.9366037,14.462 94.3254303,15.97 92.2454303,15.97 Z M92.5992113,14.501 C93.6262113,14.501 94.4147136,13.656 94.6526548,12.668 C94.8874651,11.693 94.5059675,10.848 93.4789675,10.848 C92.4519675,10.848 91.6764651,11.693 91.4416548,12.668 C91.2037136,13.656 91.5722113,14.501 92.5992113,14.501 Z M102.813,15.814 L101.149,15.814 L101.34311,15.008 C100.698831,15.632 99.92843,15.97 99.17443,15.97 C97.5884303,15.97 96.6804644,14.774 97.184524,12.681 C97.6791911,10.627 99.162748,9.379 100.761748,9.379 C101.502748,9.379 102.126478,9.704 102.467069,10.341 L103.237247,7.143 L104.901247,7.143 L102.813,15.814 Z M100.035211,14.501 C100.594211,14.501 101.26422,14.202 101.637406,13.786 L102.172773,11.563 C101.999959,11.147 101.473967,10.848 100.914967,10.848 C99.978967,10.848 99.150512,11.589 98.887524,12.681 C98.6276672,13.76 99.099211,14.501 100.035211,14.501 Z M107.36443,15.97 C105.45343,15.97 104.32038,14.683 104.805655,12.668 C105.243967,10.848 106.936748,9.379 108.847748,9.379 C110.719748,9.379 111.655621,10.783 111.160954,12.837 L111.073292,13.201 L106.406292,13.201 C106.319313,13.994 106.796642,14.657 107.862642,14.657 C108.395642,14.657 109.192996,14.423 109.68992,14.033 L110.161194,15.099 C109.399439,15.671 108.33943,15.97 107.36443,15.97 Z M109.743541,12.083 C109.848558,11.485 109.623537,10.692 108.531537,10.692 C107.504537,10.692 106.87782,11.459 106.649541,12.083 L109.743541,12.083 Z" id="PIN-Code" fill="#FFFFFF"></path>
            </g>
        </g>
    </g>
</svg>