<?xml version="1.0" encoding="UTF-8"?>
<svg width="124px" height="53px" viewBox="0 0 124 53" version="1.1" xmlns="http://www.w3.org/2000/svg" xmlns:xlink="http://www.w3.org/1999/xlink">
    <!-- Generator: Sketch 55.2 (78181) - https://sketchapp.com -->
    <title>ledger-app</title>
    <desc>Created with Sketch.</desc>
    <defs>
        <linearGradient x1="111.539463%" y1="88.6971464%" x2="5.55111512e-15%" y2="0%" id="linearGradient-1">
            <stop stop-color="#33CCFF" offset="0%"></stop>
            <stop stop-color="#4DECCA" offset="100%"></stop>
        </linearGradient>
    </defs>
    <g id="WEBSITE" stroke="none" stroke-width="1" fill="none" fill-rule="evenodd">
        <g id="THORCHAIN-COM-UNLOCK-Copy" transform="translate(-722.000000, -397.000000)" fill-rule="nonzero">
            <g id="ledger-app" transform="translate(723.000000, 398.000000)">
                <polygon id="rect" stroke="#F8F8F8" stroke-width="2.5" fill="#848E9C" points="21.0131579 30.4868421 21.0131579 5.61842105 0.25 5.61842105 0.25 30.4868421"></polygon>
                <path d="M24,0.25 C23.5857864,0.25 23.25,0.58578644 23.25,1 L23.25,34.8947368 C23.25,35.3089504 23.5857864,35.6447368 24,35.6447368 L120.210526,35.6447368 C120.62474,35.6447368 120.960526,35.3089504 120.960526,34.8947368 L120.960526,1 C120.960526,0.58578644 120.62474,0.25 120.210526,0.25 L24,0.25 Z" id="Rectangle-Copy" stroke="#F8F8F8" stroke-width="2.5" fill="#848E9C"></path>
                <rect id="Rectangle-3-Copy-2" fill="#F8F8F8" opacity="0.600000024" x="7.42105263" y="11.7368421" width="8.42105263" height="4.21052632"></rect>
                <rect id="Rectangle-3-Copy-3" fill="#F8F8F8" opacity="0.600000024" x="7.42105263" y="20.1578947" width="8.42105263" height="4.21052632"></rect>
                <g id="Group-2-Copy" transform="translate(38.000000, 8.000000)">
                    <rect id="Rectangle-3" fill="#F8F8F8" opacity="0.561579253" x="0" y="4" width="12" height="12" rx="1"></rect>
                    <rect id="Rectangle-3-Copy-6" fill="#F8F8F8" opacity="0.583156634" x="56" y="4" width="12" height="12" rx="1"></rect>
                    <path d="M16.568,23 L14.396,23 L14.396,18.998 L16.502,18.998 C17.264,18.998 17.654,19.484 17.654,20.018 C17.654,20.522 17.342,20.858 16.964,20.936 C17.39,21.002 17.732,21.416 17.732,21.92 C17.732,22.52 17.33,23 16.568,23 Z M16.316,20.6 C16.604,20.6 16.784,20.42 16.784,20.168 C16.784,19.916 16.604,19.73 16.316,19.73 L15.248,19.73 L15.248,20.6 L16.316,20.6 Z M16.346,22.262 C16.67,22.262 16.862,22.088 16.862,21.8 C16.862,21.548 16.682,21.332 16.346,21.332 L15.248,21.332 L15.248,22.262 L16.346,22.262 Z M18.734,19.79 C18.488,19.79 18.278,19.586 18.278,19.334 C18.278,19.082 18.488,18.884 18.734,18.884 C18.986,18.884 19.19,19.082 19.19,19.334 C19.19,19.586 18.986,19.79 18.734,19.79 Z M19.118,23 L18.356,23 L18.356,20.102 L19.118,20.102 L19.118,23 Z M22.592,23 L21.83,23 L21.83,21.248 C21.83,20.846 21.62,20.708 21.296,20.708 C20.996,20.708 20.762,20.876 20.636,21.05 L20.636,23 L19.874,23 L19.874,20.102 L20.636,20.102 L20.636,20.48 C20.822,20.258 21.176,20.03 21.65,20.03 C22.286,20.03 22.592,20.39 22.592,20.954 L22.592,23 Z M25.85,23 L25.088,23 L25.088,22.7 C24.89,22.934 24.548,23.072 24.17,23.072 C23.708,23.072 23.162,22.76 23.162,22.112 C23.162,21.434 23.708,21.176 24.17,21.176 C24.554,21.176 24.896,21.302 25.088,21.53 L25.088,21.14 C25.088,20.846 24.836,20.654 24.452,20.654 C24.14,20.654 23.852,20.768 23.606,20.996 L23.318,20.486 C23.672,20.174 24.128,20.03 24.584,20.03 C25.244,20.03 25.85,20.294 25.85,21.128 L25.85,23 Z M24.476,22.556 C24.722,22.556 24.962,22.472 25.088,22.304 L25.088,21.944 C24.962,21.776 24.722,21.692 24.476,21.692 C24.176,21.692 23.93,21.848 23.93,22.13 C23.93,22.4 24.176,22.556 24.476,22.556 Z M29.324,23 L28.562,23 L28.562,21.248 C28.562,20.846 28.352,20.708 28.028,20.708 C27.728,20.708 27.494,20.876 27.368,21.05 L27.368,23 L26.606,23 L26.606,20.102 L27.368,20.102 L27.368,20.48 C27.554,20.258 27.908,20.03 28.382,20.03 C29.018,20.03 29.324,20.39 29.324,20.954 L29.324,23 Z M31.43,23.072 C30.536,23.072 29.894,22.442 29.894,21.548 C29.894,20.66 30.536,20.03 31.43,20.03 C32.024,20.03 32.384,20.288 32.576,20.552 L32.078,21.02 C31.94,20.816 31.73,20.708 31.466,20.708 C31.004,20.708 30.68,21.044 30.68,21.548 C30.68,22.052 31.004,22.394 31.466,22.394 C31.73,22.394 31.94,22.274 32.078,22.082 L32.576,22.544 C32.384,22.814 32.024,23.072 31.43,23.072 Z M34.436,23.072 C33.554,23.072 32.888,22.478 32.888,21.548 C32.888,20.708 33.506,20.03 34.388,20.03 C35.252,20.03 35.84,20.678 35.84,21.626 L35.84,21.794 L33.686,21.794 C33.734,22.16 34.028,22.466 34.52,22.466 C34.766,22.466 35.108,22.358 35.294,22.178 L35.63,22.67 C35.342,22.934 34.886,23.072 34.436,23.072 Z M35.102,21.278 C35.084,21.002 34.892,20.636 34.388,20.636 C33.914,20.636 33.71,20.99 33.674,21.278 L35.102,21.278 Z M39.884,23.072 C38.684,23.072 37.754,22.232 37.754,21.002 C37.754,19.772 38.684,18.932 39.884,18.932 C40.766,18.932 41.276,19.412 41.558,19.91 L40.826,20.27 C40.658,19.946 40.298,19.688 39.884,19.688 C39.158,19.688 38.63,20.246 38.63,21.002 C38.63,21.758 39.158,22.316 39.884,22.316 C40.298,22.316 40.658,22.064 40.826,21.734 L41.558,22.088 C41.27,22.586 40.766,23.072 39.884,23.072 Z M44.774,23 L44.012,23 L44.012,21.236 C44.012,20.834 43.802,20.708 43.472,20.708 C43.178,20.708 42.944,20.876 42.812,21.05 L42.812,23 L42.05,23 L42.05,18.998 L42.812,18.998 L42.812,20.48 C42.998,20.258 43.358,20.03 43.832,20.03 C44.468,20.03 44.774,20.378 44.774,20.942 L44.774,23 Z M48.032,23 L47.27,23 L47.27,22.7 C47.072,22.934 46.73,23.072 46.352,23.072 C45.89,23.072 45.344,22.76 45.344,22.112 C45.344,21.434 45.89,21.176 46.352,21.176 C46.736,21.176 47.078,21.302 47.27,21.53 L47.27,21.14 C47.27,20.846 47.018,20.654 46.634,20.654 C46.322,20.654 46.034,20.768 45.788,20.996 L45.5,20.486 C45.854,20.174 46.31,20.03 46.766,20.03 C47.426,20.03 48.032,20.294 48.032,21.128 L48.032,23 Z M46.658,22.556 C46.904,22.556 47.144,22.472 47.27,22.304 L47.27,21.944 C47.144,21.776 46.904,21.692 46.658,21.692 C46.358,21.692 46.112,21.848 46.112,22.13 C46.112,22.4 46.358,22.556 46.658,22.556 Z M49.166,19.79 C48.92,19.79 48.71,19.586 48.71,19.334 C48.71,19.082 48.92,18.884 49.166,18.884 C49.418,18.884 49.622,19.082 49.622,19.334 C49.622,19.586 49.418,19.79 49.166,19.79 Z M49.55,23 L48.788,23 L48.788,20.102 L49.55,20.102 L49.55,23 Z M53.024,23 L52.262,23 L52.262,21.248 C52.262,20.846 52.052,20.708 51.728,20.708 C51.428,20.708 51.194,20.876 51.068,21.05 L51.068,23 L50.306,23 L50.306,20.102 L51.068,20.102 L51.068,20.48 C51.254,20.258 51.608,20.03 52.082,20.03 C52.718,20.03 53.024,20.39 53.024,20.954 L53.024,23 Z" id="Binance-Chain" fill="#F8F8F8"></path>
                    <g id="Combined-Shape" transform="translate(27.000000, 0.000000)">
                        <g id="path-1-link" fill="#000000">
                            <path d="M2.7197508,4.00285557 L1.3604983,4.80241137 L1.3604983,6.401523 L0,5.60196718 L0,4.00285557 L1.3604983,3.20203063 L2.7197508,4.00285557 Z M12.2395016,3.20203063 L13.6,4.00285557 L13.6,5.60196718 L12.2395016,6.401523 L12.2395016,4.80241137 L10.8802492,4.00285557 L12.2395016,3.20203063 Z M9.5197508,1.60291902 L10.8802492,2.40247483 L9.5197508,3.20203063 L8.1604983,2.40247483 L6.8,1.60291902 L5.4395016,2.40247483 L4.0802492,3.20203063 L2.7197508,2.40247483 L4.0802492,1.60291902 L6.8,0 L8.1604983,0.80209408 L9.5197508,1.60291902 Z M6.8,3.20203063 L8.1604983,4.00285557 L6.8,4.80241137 L5.4395016,4.00285557 L6.8,3.20203063 Z M9.5197508,4.80241137 L10.8802492,5.60196718 L10.8802492,7.2010788 L9.5197508,8.0019037 L8.1604983,8.8014595 L8.1604983,12.0009519 L6.8,12.8005077 L5.4395016,12.0009519 L5.4395016,8.8014595 L4.0802492,8.0019037 L2.7197508,7.2010788 L2.7197508,5.60196718 L4.0802492,4.80241137 L6.8,6.401523 L8.1604983,5.60196718 L9.5197508,4.80241137 Z M9.5197508,9.6010153 L10.8802492,8.8078052 L10.8802492,10.4069168 L9.5197508,11.2013961 L9.5197508,9.6010153 Z M12.2395016,8.0019037 L13.6,7.2010788 L13.6,12.0009519 L12.2395016,12.8005077 L10.8802492,13.6000635 L9.5197508,14.3996193 L9.5197508,12.8005077 L12.2395016,11.2013961 L12.2395016,8.0019037 Z M1.3604983,11.2013961 L4.0802492,12.8005077 L4.0802492,14.3996193 L2.7197508,13.6000635 L1.3604983,12.8005077 L0,12.0009519 L0,7.2010788 L1.3604983,8.0019037 L1.3604983,11.2013961 Z M8.1592525,13.6000635 L8.1604983,13.6000635 L8.1604983,15.2004442 L6.8,16 L5.4395016,15.2004442 L5.4395016,13.6000635 L6.8,14.3996193 L8.1592525,13.6000635 Z M2.7197508,8.8014595 L4.0790033,9.6010153 L4.0790033,11.2064726 L2.7197508,10.4069168 L2.7197508,8.8014595 Z" id="path-1"></path>
                        </g>
                        <g id="path-1-link" fill="#F8F8F8">
                            <path d="M2.7197508,4.00285557 L1.3604983,4.80241137 L1.3604983,6.401523 L0,5.60196718 L0,4.00285557 L1.3604983,3.20203063 L2.7197508,4.00285557 Z M12.2395016,3.20203063 L13.6,4.00285557 L13.6,5.60196718 L12.2395016,6.401523 L12.2395016,4.80241137 L10.8802492,4.00285557 L12.2395016,3.20203063 Z M9.5197508,1.60291902 L10.8802492,2.40247483 L9.5197508,3.20203063 L8.1604983,2.40247483 L6.8,1.60291902 L5.4395016,2.40247483 L4.0802492,3.20203063 L2.7197508,2.40247483 L4.0802492,1.60291902 L6.8,0 L8.1604983,0.80209408 L9.5197508,1.60291902 Z M6.8,3.20203063 L8.1604983,4.00285557 L6.8,4.80241137 L5.4395016,4.00285557 L6.8,3.20203063 Z M9.5197508,4.80241137 L10.8802492,5.60196718 L10.8802492,7.2010788 L9.5197508,8.0019037 L8.1604983,8.8014595 L8.1604983,12.0009519 L6.8,12.8005077 L5.4395016,12.0009519 L5.4395016,8.8014595 L4.0802492,8.0019037 L2.7197508,7.2010788 L2.7197508,5.60196718 L4.0802492,4.80241137 L6.8,6.401523 L8.1604983,5.60196718 L9.5197508,4.80241137 Z M9.5197508,9.6010153 L10.8802492,8.8078052 L10.8802492,10.4069168 L9.5197508,11.2013961 L9.5197508,9.6010153 Z M12.2395016,8.0019037 L13.6,7.2010788 L13.6,12.0009519 L12.2395016,12.8005077 L10.8802492,13.6000635 L9.5197508,14.3996193 L9.5197508,12.8005077 L12.2395016,11.2013961 L12.2395016,8.0019037 Z M1.3604983,11.2013961 L4.0802492,12.8005077 L4.0802492,14.3996193 L2.7197508,13.6000635 L1.3604983,12.8005077 L0,12.0009519 L0,7.2010788 L1.3604983,8.0019037 L1.3604983,11.2013961 Z M8.1592525,13.6000635 L8.1604983,13.6000635 L8.1604983,15.2004442 L6.8,16 L5.4395016,15.2004442 L5.4395016,13.6000635 L6.8,14.3996193 L8.1592525,13.6000635 Z M2.7197508,8.8014595 L4.0790033,9.6010153 L4.0790033,11.2064726 L2.7197508,10.4069168 L2.7197508,8.8014595 Z" id="path-1"></path>
                        </g>
                    </g>
                    <path d="M52.4872517,12.2678807 C53.8143094,11.6646784 55.3887993,12.232358 56.0037285,13.5334612 C57.4734553,16.6353759 58.7855593,19.7139787 59.9599496,22.836558 C60.2908447,22.212435 60.8768227,21.7248521 61.622771,21.5266596 C62.6038929,21.2722797 63.6030985,21.5917275 64.2471528,22.2776737 C64.590915,21.7632781 65.121512,21.3639042 65.7751296,21.1925245 C66.7507743,20.9381446 67.7450244,21.2546037 68.3889047,21.9315838 C68.6086141,21.5916912 68.9054359,21.3063549 69.2561348,21.0979112 C70.5064241,20.3555216 72.1326436,20.7488327 72.8877206,21.9760726 C75.7684026,26.6570382 76.9890453,33.1776682 77.5222505,38.5744668 C76.1661547,41.1323552 68.0153219,44.3083038 61.8943727,44.0067881 C59.5768904,41.0317645 56.2986302,35.9217944 49.8705206,32.35262 C48.568154,31.6992932 48.0518152,30.1317701 48.7167351,28.8515023 C49.3821766,27.5737963 50.9773584,27.065378 52.279725,27.7188756 C54.2620522,28.7153036 55.7775097,29.726675 57.1186517,30.8298417 C56.7892322,29.7682789 56.4441878,28.7114542 56.0836266,27.6596996 C54.7103167,23.6587882 53.0952256,19.722774 51.1989694,15.7216919 C50.5836055,14.4176 51.1606287,12.8709123 52.4872517,12.2678807 Z" id="路径" fill="url(#linearGradient-1)" opacity="0.295898437" transform="translate(62.974389, 28.026743) rotate(-15.000000) translate(-62.974389, -28.026743) "></path>
                    <path d="M52.4872517,9.26788071 C53.8143094,8.66467841 55.3887993,9.23235801 56.0037285,10.5334612 C57.4734553,13.6353759 58.7855593,16.7139787 59.9599496,19.836558 C60.2908447,19.212435 60.8768227,18.7248521 61.622771,18.5266596 C62.6038929,18.2722797 63.6030985,18.5917275 64.2471528,19.2776737 C64.590915,18.7632781 65.121512,18.3639042 65.7751296,18.1925245 C66.7507743,17.9381446 67.7450244,18.2546037 68.3889047,18.9315838 C68.6086141,18.5916912 68.9054359,18.3063549 69.2561348,18.0979112 C70.5064241,17.3555216 72.1326436,17.7488327 72.8877206,18.9760726 C75.7684026,23.6570382 76.9890453,30.1776682 77.5222505,35.5744668 C76.1661547,38.1323552 68.0153219,41.3083038 61.8943727,41.0067881 C59.5768904,38.0317645 56.2986302,32.9217944 49.8705206,29.35262 C48.568154,28.6992932 48.0518152,27.1317701 48.7167351,25.8515023 C49.3821766,24.5737963 50.9773584,24.065378 52.279725,24.7188756 C54.2620522,25.7153036 55.7775097,26.726675 57.1186517,27.8298417 C56.7892322,26.7682789 56.4441878,25.7114542 56.0836266,24.6596996 C54.7103167,20.6587882 53.0952256,16.722774 51.1989694,12.7216919 C50.5836055,11.4176 51.1606287,9.87091231 52.4872517,9.26788071 Z" id="路径" stroke="#33CCFF" stroke-width="0.5" fill="url(#linearGradient-1)" transform="translate(62.974389, 25.026743) rotate(-15.000000) translate(-62.974389, -25.026743) "></path>
                </g>
            </g>
        </g>
    </g>
</svg>