<svg xmlns="http://www.w3.org/2000/svg" viewBox="0 0 200 200"><defs><style>.cls-1{fill:#ccd0d9;}.cls-2{fill:none;}.cls-3,.cls-4{fill:#959eb1;}.cls-4{fill-rule:evenodd;}</style></defs><title>DEX IOCN</title><g id="图层_1" data-name="图层 1"><path class="cls-1" d="M32.53,161.71V91.11H28.69a4,4,0,0,0-4,4v82.4a4,4,0,0,0,4,4H147.25a4,4,0,0,0,4-4v-3.84H44.49A12,12,0,0,1,32.53,161.71Z"/><path class="cls-2" d="M81.84,63.3A29.42,29.42,0,0,1,111.36,34a29.81,29.81,0,0,1,6.39.7,26.09,26.09,0,0,0-14.47-4.48C87.66,30.2,75,44.76,75,60.27v7.08h6.83Z"/><path class="cls-1" d="M81.84,63.3v4h49.73V60.27a31.32,31.32,0,0,0-13.82-25.59,29.81,29.81,0,0,0-6.39-.7A29.42,29.42,0,0,0,81.84,63.3Z"/><path class="cls-2" d="M117.75,34.68a26.09,26.09,0,0,0-14.47-4.48C87.66,30.2,75,44.76,75,60.27v7.08h56.57V60.27A31.32,31.32,0,0,0,117.75,34.68Z"/><path class="cls-3" d="M75,60.27C75,44.76,87.66,30.2,103.28,30.2a26.09,26.09,0,0,1,14.47,4.48,31.32,31.32,0,0,1,13.82,25.59v7.08h10.88V58.11a39.16,39.16,0,0,0-78.33,0v9.24H75Z"/><path class="cls-3" d="M163,67.35H44.49a12,12,0,0,0-12,12v82.4a12,12,0,0,0,12,12H163a12,12,0,0,0,12-12V79.3A12,12,0,0,0,163,67.35Zm-.28,92.87h-118V80.79h118Z"/><path class="cls-4" d="M97.86,124.49a12.92,12.92,0,0,1-6.15-11.14c0-7.06,5.39-12.78,12.05-12.78s12.05,5.72,12.05,12.78a12.92,12.92,0,0,1-6.15,11.14l6.15,18.25H91.72Z"/><rect class="cls-2" x="-29589.57" y="-3113.9" width="47460.11" height="25855.87"/></g></svg>