<?xml version="1.0" encoding="UTF-8"?>
<svg width="15px" height="13px" viewBox="0 0 15 13" version="1.1" xmlns="http://www.w3.org/2000/svg" xmlns:xlink="http://www.w3.org/1999/xlink">
    <title>Path Copy 2</title>
    <g id="Active---THORChain.org" stroke="none" stroke-width="1" fill="none" fill-rule="evenodd">
        <g id="Technology---FINAL" transform="translate(-1403.000000, -24.000000)" fill="#23DCC8" fill-rule="nonzero">
            <g id="Social-Media" transform="translate(1327.000000, 24.000000)">
                <g id="Hover" transform="translate(0.000000, -0.000496)">
                    <path d="M90.9414062,2.06028405 C90.3884486,2.30578338 89.7957434,2.47061847 89.1726431,2.54543727 C89.8086029,2.16432887 90.297263,1.56110231 90.5263956,0.843309612 C89.9325214,1.1951917 89.2720118,1.45121235 88.5717545,1.58915936 C88.0106135,0.990608972 87.2109876,0.617684249 86.3260216,0.617684249 C84.6262322,0.617684249 83.2479295,1.9948176 83.2479295,3.69460732 C83.2479295,3.93543018 83.2759866,4.17040789 83.3285935,4.39603356 C80.7707258,4.2674386 78.50395,3.04228078 76.9853624,1.1799942 C76.7199894,1.63592111 76.5691828,2.16432887 76.5691828,2.72780809 C76.5691828,3.79514493 77.1116191,4.73739432 77.9381328,5.29035193 C77.4331059,5.27398517 76.9584743,5.13486919 76.5434637,4.90456735 C76.5434637,4.91742691 76.5434637,4.93028646 76.5434637,4.94314602 C76.5434637,6.43484581 77.6049554,7.67753906 79.0113151,7.96161676 C78.7541255,8.03175938 78.4817384,8.06916878 78.2011679,8.06916878 C78.0024303,8.06916878 77.8095382,8.05046408 77.6213222,8.01305468 C78.0141209,9.23470529 79.1504314,10.1266857 80.4960005,10.1512356 C79.4438611,10.9765806 78.1169967,11.4675789 76.6743966,11.4675789 C76.4253904,11.4675789 76.1810603,11.4535504 75.9414062,11.4243244 C77.302173,12.2987691 78.9201295,12.8073029 80.6584976,12.8073029 C86.3190075,12.8073029 89.4146352,8.11826876 89.4146352,4.05233455 C89.4146352,3.91906372 89.411128,3.78462361 89.4064519,3.65369072 C90.0073402,3.21997542 90.5287338,2.67753914 90.9414062,2.06028405 Z" id="Path-Copy-2"></path>
                </g>
            </g>
        </g>
    </g>
</svg>