<?xml version="1.0" encoding="UTF-8"?>
<svg width="18px" height="14px" viewBox="0 0 18 14" version="1.1" xmlns="http://www.w3.org/2000/svg" xmlns:xlink="http://www.w3.org/1999/xlink">
    <title>Shape</title>
    <g id="Active---THORChain.org" stroke="none" stroke-width="1" fill="none" fill-rule="evenodd">
        <g id="Technology" transform="translate(-1366.000000, -24.000000)" fill="#FFFFFF" fill-rule="nonzero">
            <g id="Social-Media" transform="translate(1327.000000, 24.000000)">
                <path d="M45.6538458,9.46412129 C45.6538458,10.2113829 45.2641256,11.4341745 44.3416688,11.4341745 C43.4192119,11.4341745 43.0294918,10.2113829 43.0294918,9.46412129 C43.0294918,8.71685973 43.4192119,7.49406809 44.3416688,7.49406809 C45.2641256,7.49406809 45.6538458,8.71685973 45.6538458,9.46412129 L45.6538458,9.46412129 Z M56.161988,7.65853714 C56.161988,8.79909426 56.0475747,10.0075842 55.5362905,11.0551806 C54.1812085,13.7939478 50.455627,13.7295904 47.788368,13.7295904 C45.0782041,13.7295904 41.1309468,13.8261266 39.7222337,11.0551806 C39.2002232,10.0183105 39,8.79909426 39,7.65853714 C39,6.16043861 39.4969826,4.7445746 40.4837969,3.59686665 C40.2978753,3.03195121 40.20849,2.43843246 40.20849,1.85206454 C40.20849,1.08335049 40.3836853,0.697205762 40.7305005,0 C42.3501631,0 43.3870332,0.321787275 44.6205511,1.2871491 C45.6574212,1.04044552 46.7228946,0.929607683 47.7919434,0.929607683 C48.7573053,0.929607683 49.7298179,1.03329469 50.6665764,1.25854579 C51.8822172,0.303910204 52.9190873,0 54.5208729,0 C54.8712635,0.697205762 55.0428834,1.08335049 55.0428834,1.85206454 C55.0428834,2.43843246 54.9499226,3.02122497 54.7675765,3.57541416 C55.7508154,4.73384835 56.161988,6.16043861 56.161988,7.65853714 L56.161988,7.65853714 Z M53.8629967,9.46412129 C53.8629967,7.89451448 52.9083611,6.51082919 51.2350673,6.51082919 C50.559314,6.51082919 49.912164,6.63239328 49.2328353,6.72535404 C48.7000986,6.80758857 48.1673619,6.8397673 47.6203236,6.8397673 C47.0768606,6.8397673 46.5441239,6.80758857 46.0078118,6.72535404 C45.3392093,6.63239328 44.6849085,6.51082919 44.0055798,6.51082919 C42.332286,6.51082919 41.3776504,7.89451448 41.3776504,9.46412129 C41.3776504,12.6033349 44.2522834,13.0860158 46.7550733,13.0860158 L48.478423,13.0860158 C50.9919391,13.0860158 53.8629967,12.6069103 53.8629967,9.46412129 Z M50.9097046,7.49406809 C49.9872477,7.49406809 49.5975276,8.71685973 49.5975276,9.46412129 C49.5975276,10.2113829 49.9872477,11.4341745 50.9097046,11.4341745 C51.8321614,11.4341745 52.2218816,10.2113829 52.2218816,9.46412129 C52.2218816,8.71685973 51.8321614,7.49406809 50.9097046,7.49406809 Z" id="Shape"></path>
            </g>
        </g>
    </g>
</svg>