<?xml version="1.0" encoding="UTF-8"?>
<svg width="15px" height="13px" viewBox="0 0 15 13" version="1.1" xmlns="http://www.w3.org/2000/svg" xmlns:xlink="http://www.w3.org/1999/xlink">
    <title>Path Copy</title>
    <g id="Active---THORChain.org" stroke="none" stroke-width="1" fill="none" fill-rule="evenodd">
        <g id="Technology---FINAL" transform="translate(-1327.000000, -25.000000)" fill="#23DCC8" fill-rule="nonzero">
            <g id="Social-Media" transform="translate(1327.000000, 24.000000)">
                <g id="Hover" transform="translate(0.000000, -0.000496)">
                    <path d="M1.03117435,6.40668443 L9.08611584,2.90156457 C12.9219022,1.28979548 13.7189158,1.0098324 14.2384165,1.00049625 C14.3526979,0.998557974 14.6081665,1.02716265 14.7736355,1.16281861 C14.9134139,1.27734896 14.9518116,1.43212121 14.9702369,1.54067946 C14.9886623,1.64923771 15.0115351,1.89668912 14.9933308,2.09000095 C14.7854586,4.29632878 13.8860422,9.65067844 13.4284749,12.1218438 C13.2348292,13.1675192 12.8538915,13.5181149 12.4845559,13.5524127 C11.6824595,13.6269802 11.0733734,13.0168772 10.2964979,12.5024395 L7.21407882,10.4107257 C5.85038239,9.50291084 6.73441215,9.00393359 7.51159149,8.1884909 C7.71496088,7.97500231 11.2490081,4.72763155 11.317378,4.4330452 C11.3256653,4.39620796 11.3338697,4.25890549 11.2531241,4.18634728 C11.1723786,4.11378906 11.0531249,4.13890537 10.9671307,4.15835655 C10.8452251,4.18631937 8.90321599,5.48304627 5.14113097,8.04859308 C4.58988999,8.43100277 4.09058251,8.61733785 3.64326378,8.60757039 C3.15008888,8.59679829 2.20144611,8.32587708 1.49622782,8.09427685 C0.631231132,7.81023935 -0.0562524203,7.66004385 0.00363685288,7.17764335 C0.0347969544,6.92639658 0.377309453,6.66945679 1.03114673,6.40674024 L1.03117435,6.40668443 Z" id="Path-Copy"></path>
                </g>
            </g>
        </g>
    </g>
</svg>