<?xml version="1.0" encoding="UTF-8"?>
<svg width="15px" height="13px" viewBox="0 0 15 13" version="1.1" xmlns="http://www.w3.org/2000/svg" xmlns:xlink="http://www.w3.org/1999/xlink">
    <title>Path</title>
    <g id="Active---THORChain.org" stroke="none" stroke-width="1" fill="none" fill-rule="evenodd">
        <g id="Technology" transform="translate(-1403.000000, -24.000000)" fill="#FFFFFF" fill-rule="nonzero">
            <g id="Social-Media" transform="translate(1327.000000, 24.000000)">
                <path d="M90.9414062,2.0597878 C90.3884486,2.30528713 89.7957434,2.47012222 89.1726431,2.54494102 C89.8086029,2.16383262 90.297263,1.56060606 90.5263956,0.842813363 C89.9325214,1.19469545 89.2720118,1.4507161 88.5717545,1.58866311 C88.0106135,0.990112723 87.2109876,0.617188 86.3260216,0.617188 C84.6262322,0.617188 83.2479295,1.99432135 83.2479295,3.69411107 C83.2479295,3.93493393 83.2759866,4.16991164 83.3285935,4.39553731 C80.7707258,4.26694235 78.50395,3.04178453 76.9853624,1.17949796 C76.7199894,1.63542486 76.5691828,2.16383262 76.5691828,2.72731184 C76.5691828,3.79464868 77.1116191,4.73689807 77.9381328,5.28985568 C77.4331059,5.27348892 76.9584743,5.13437294 76.5434637,4.9040711 C76.5434637,4.91693066 76.5434637,4.92979021 76.5434637,4.94264977 C76.5434637,6.43434956 77.6049554,7.67704281 79.0113151,7.96112051 C78.7541255,8.03126313 78.4817384,8.06867253 78.2011679,8.06867253 C78.0024303,8.06867253 77.8095382,8.04996783 77.6213222,8.01255843 C78.0141209,9.23420904 79.1504314,10.1261895 80.4960005,10.1507393 C79.4438611,10.9760843 78.1169967,11.4670827 76.6743966,11.4670827 C76.4253904,11.4670827 76.1810603,11.4530542 75.9414062,11.4238282 C77.302173,12.2982729 78.9201295,12.8068067 80.6584976,12.8068067 C86.3190075,12.8068067 89.4146352,8.11777251 89.4146352,4.0518383 C89.4146352,3.91856747 89.411128,3.78412737 89.4064519,3.65319447 C90.0073402,3.21947917 90.5287338,2.67704289 90.9414062,2.0597878 Z" id="Path"></path>
            </g>
        </g>
    </g>
</svg>