<svg width="18" height="14" viewBox="0 0 18 14" fill="none" xmlns="http://www.w3.org/2000/svg">
<path id="Shape Copy 4" fill-rule="evenodd" clip-rule="evenodd" d="M16.5363 11.0557C17.0476 10.0081 17.162 8.79958 17.162 7.65903C17.162 6.16093 16.7508 4.73434 15.7676 3.5759C15.9499 3.02171 16.0429 2.43892 16.0429 1.85255C16.0429 1.08384 15.8713 0.697694 15.5209 0.000488281C13.9191 0.000488281 12.8822 0.304398 11.6666 1.25903C10.7298 1.03378 9.75731 0.930096 8.79194 0.930096C7.72289 0.930096 6.65742 1.04093 5.62055 1.28764C4.38703 0.322276 3.35016 0.000488281 1.7305 0.000488281C1.38369 0.697694 1.20849 1.08384 1.20849 1.85255C1.20849 2.43892 1.29788 3.03244 1.4838 3.59735C0.496983 4.74506 0 6.16093 0 7.65903C0 8.79958 0.200223 10.0188 0.722234 11.0557C2.08566 13.7375 5.82706 13.7333 8.52331 13.7303L8.78837 13.7301L8.96803 13.7301C11.6203 13.7316 15.2114 13.7335 16.5363 11.0557ZM5.34167 11.4347C6.26413 11.4347 6.65385 10.2119 6.65385 9.46461C6.65385 8.71735 6.26413 7.49456 5.34167 7.49456C4.41921 7.49456 4.02949 8.71735 4.02949 9.46461C4.02949 10.2119 4.41921 11.4347 5.34167 11.4347ZM14.863 9.46461C14.863 7.895 13.9084 6.51132 12.2351 6.51132C11.7009 6.51132 11.1846 6.58728 10.6562 6.66502C10.5161 6.68563 10.3752 6.70636 10.2328 6.72584C9.7001 6.80808 9.16736 6.84026 8.62032 6.84026C8.07686 6.84026 7.54412 6.80808 7.00781 6.72584C6.87614 6.70753 6.74503 6.68812 6.61416 6.66874L6.61415 6.66874C6.08052 6.58971 5.55112 6.51132 5.00558 6.51132C3.33229 6.51132 2.37765 7.895 2.37765 9.46461C2.37765 12.6038 5.25228 13.0865 7.75507 13.0865H9.47842C11.9919 13.0865 14.863 12.6074 14.863 9.46461ZM10.5975 9.46461C10.5975 8.71735 10.9872 7.49456 11.9097 7.49456C12.8322 7.49456 13.2219 8.71735 13.2219 9.46461C13.2219 10.2119 12.8322 11.4347 11.9097 11.4347C10.9872 11.4347 10.5975 10.2119 10.5975 9.46461Z" fill="#56F8FE"/>
</svg>
