<?xml version="1.0" encoding="UTF-8"?>
<svg width="15px" height="13px" viewBox="0 0 15 13" version="1.1" xmlns="http://www.w3.org/2000/svg" xmlns:xlink="http://www.w3.org/1999/xlink">
    <title>Path</title>
    <g id="Active---THORChain.org" stroke="none" stroke-width="1" fill="none" fill-rule="evenodd">
        <g id="Technology" transform="translate(-1327.000000, -25.000000)" fill="#FFFFFF" fill-rule="nonzero">
            <g id="Social-Media" transform="translate(1327.000000, 24.000000)">
                <path d="M1.03117435,6.40618818 L9.08611584,2.90106832 C12.9219022,1.28929923 13.7189158,1.00933616 14.2384165,1 C14.3526979,0.998061725 14.6081665,1.02666641 14.7736355,1.16232236 C14.9134139,1.27685271 14.9518116,1.43162496 14.9702369,1.54018321 C14.9886623,1.64874146 15.0115351,1.89619287 14.9933308,2.0895047 C14.7854586,4.29583253 13.8860422,9.65018219 13.4284749,12.1213475 C13.2348292,13.167023 12.8538915,13.5176187 12.4845559,13.5519164 C11.6824595,13.6264839 11.0733734,13.016381 10.2964979,12.5019432 L7.21407882,10.4102295 C5.85038239,9.50241459 6.73441215,9.00343734 7.51159149,8.18799465 C7.71496088,7.97450606 11.2490081,4.7271353 11.317378,4.43254895 C11.3256653,4.39571171 11.3338697,4.25840924 11.2531241,4.18585103 C11.1723786,4.11329281 11.0531249,4.13840912 10.9671307,4.1578603 C10.8452251,4.18582312 8.90321599,5.48255003 5.14113097,8.04809683 C4.58988999,8.43050652 4.09058251,8.6168416 3.64326378,8.60707415 C3.15008888,8.59630204 2.20144611,8.32538083 1.49622782,8.0937806 C0.631231132,7.8097431 -0.0562524203,7.6595476 0.00363685288,7.1771471 C0.0347969544,6.92590034 0.377309453,6.66896054 1.03114673,6.40624399 L1.03117435,6.40618818 Z" id="Path"></path>
            </g>
        </g>
    </g>
</svg>